<?xml version="1.0" encoding="UTF-8" standalone="no"?>
<svg
   class="octicon octicon-verified"
   aria-hidden="true"
   data-view-component="true"
   version="1.1"
   viewBox="0 0 16 16"
   id="svg11"
   sodipodi:docname="github-checkmark.svg"
   inkscape:version="1.2 (dc2aeda, 2022-05-15)"
   xmlns:inkscape="http://www.inkscape.org/namespaces/inkscape"
   xmlns:sodipodi="http://sodipodi.sourceforge.net/DTD/sodipodi-0.dtd"
   xmlns="http://www.w3.org/2000/svg"
   xmlns:svg="http://www.w3.org/2000/svg">
  <defs
     id="defs15" />
  <sodipodi:namedview
     id="namedview13"
     pagecolor="#ffffff"
     bordercolor="#666666"
     borderopacity="1.0"
     inkscape:showpageshadow="2"
     inkscape:pageopacity="0.0"
     inkscape:pagecheckerboard="0"
     inkscape:deskcolor="#d1d1d1"
     showgrid="false"
     inkscape:zoom="14.75"
     inkscape:cx="3.6271186"
     inkscape:cy="8.0338983"
     inkscape:window-width="1920"
     inkscape:window-height="1027"
     inkscape:window-x="0"
     inkscape:window-y="25"
     inkscape:window-maximized="0"
     inkscape:current-layer="svg11"
     inkscape:document-units="pt" />
  <path
     d="M9.585.52a2.678 2.678 0 00-3.17 0l-.928.68a1.178 1.178 0 01-.518.215L3.83 1.59a2.678 2.678 0 00-2.24 2.24l-.175 1.14a1.178 1.178 0 01-.215.518l-.68.928a2.678 2.678 0 000 3.17l.68.928c.113.153.186.33.215.518l.175 1.138a2.678 2.678 0 002.24 2.24l1.138.175c.187.029.365.102.518.215l.928.68a2.678 2.678 0 003.17 0l.928-.68a1.17 1.17 0 01.518-.215l1.138-.175a2.678 2.678 0 002.241-2.241l.175-1.138c.029-.187.102-.365.215-.518l.68-.928a2.678 2.678 0 000-3.17l-.68-.928a1.179 1.179 0 01-.215-.518L14.41 3.83a2.678 2.678 0 00-2.24-2.24l-1.138-.175a1.179 1.179 0 01-.518-.215L9.585.52zM7.303 1.728c.415-.305.98-.305 1.394 0l.928.68c.348.256.752.423 1.18.489l1.136.174c.51.078.909.478.987.987l.174 1.137c.066.427.233.831.489 1.18l.68.927c.305.415.305.98 0 1.394l-.68.928a2.678 2.678 0 00-.489 1.18l-.174 1.136a1.178 1.178 0 01-.987.987l-1.137.174a2.678 2.678 0 00-1.18.489l-.927.68c-.415.305-.98.305-1.394 0l-.928-.68a2.678 2.678 0 00-1.18-.489l-1.136-.174a1.178 1.178 0 01-.987-.987l-.174-1.137a2.678 2.678 0 00-.489-1.18l-.68-.927a1.178 1.178 0 010-1.394l.68-.928c.256-.348.423-.752.489-1.18l.174-1.136c.078-.51.478-.909.987-.987l1.137-.174a2.678 2.678 0 001.18-.489l.927-.68zM11.28 6.78a.75.75 0 00-1.06-1.06L7 8.94 5.78 7.72a.75.75 0 00-1.06 1.06l1.75 1.75a.75.75 0 001.06 0l3.75-3.75z"
     fill-rule="evenodd"
     id="path9"
     style="fill:#2da44e;fill-opacity:1" />
</svg>
